<svg xmlns="http://www.w3.org/2000/svg" viewBox="0 0 130.6 200"><defs><style>.cls-1{fill:#d1731e;}.cls-2{fill:#fca054;}.cls-3{fill:#c6824a;}.cls-4{fill:#c7946d;}.cls-5{fill:#3f2222;}.cls-6{fill:#bf0000;}.cls-7{fill:#fdb376;}</style></defs><g id="Layer_2" data-name="Layer 2"><g id="Layer_3" data-name="Layer 3"><path class="cls-1" d="M69,136.9H57.09v45c-2.33.11-4.38.28-6,.45-7.14.78-9.9,1.89-11.4,2.6-.59.28-4.77,2.27-4.38,3.16s4,.87,18.49-1.92l-9.52,3.38c-3.5,1.58-5.14,2.6-4.94,3.05q.55,1.18,18.07-2.82c-9.83,4-11.45,5.5-11.19,6.15.43,1,6.12.76,10.71-.68a23.13,23.13,0,0,0,12-8.79H69Z"/><path class="cls-2" d="M78.59,140.36H66.7v45c-2.33.11-4.39.27-6,.45-7.14.78-9.9,1.89-11.39,2.6-.6.28-4.77,2.26-4.38,3.16.33.75,4,.87,18.49-1.92L53.86,193c-3.49,1.58-5.14,2.6-4.93,3.05q.54,1.17,18.07-2.82c-9.84,4-11.46,5.5-11.19,6.15.43,1,6.12.76,10.7-.68a23.17,23.17,0,0,0,12-8.79Z"/><path class="cls-3" d="M129.12,108.32a5.22,5.22,0,0,0-.33-.45c1.37-2.31,2.57-5.33,1.21-7.64-1-1.64-3.49-2.6-9.83-2.32-8.23.37-12.71,2.31-21.37,4-4.06.77-7.4,1.16-9.47,1.37l-57.87,0A30.54,30.54,0,0,0,.92,133.73v3a30.54,30.54,0,0,0,30.54,30.55H90.37a30.55,30.55,0,0,0,30.55-30.55v-3c0-.93-.06-1.85-.14-2.75a22.07,22.07,0,0,0,2.25-2.4c1.15-1.45,5.38-6.82,3.46-10.51C128.11,115.88,131,111.45,129.12,108.32Z"/><path class="cls-3" d="M56.86,32.45a34.13,34.13,0,0,0-3.25-2.88A33.19,33.19,0,0,0,0,55.76V134.1a33.22,33.22,0,1,0,66.43,0V55.76A33.11,33.11,0,0,0,56.86,32.45Z"/><path class="cls-4" d="M48,125.81h0c0-9.5,5.69-17.2,12.71-17.2H90.52c1.6,0,13.17-1,16.79,7.08,3,7.18-5.86,15.57-8.24,17.82C86,145.85,60.89,149.32,51.74,138,50.07,135.9,48,132.22,48,125.81Z"/><ellipse class="cls-5" cx="11.28" cy="58.76" rx="6.51" ry="9.26"/><ellipse class="cls-5" cx="41.32" cy="59.3" rx="6.51" ry="9.26"/><path class="cls-6" d="M30.61,78.36a5.85,5.85,0,0,0-3,.88,9.85,9.85,0,0,0-4.48-1.09,10.63,10.63,0,0,0,0,21.24c.22,0,.43,0,.64,0,1.55,3.3,4,5.45,6.86,5.45,4.68,0,8.48-5.92,8.48-13.22S35.29,78.36,30.61,78.36Z"/><path class="cls-6" d="M53.87,14.84a5.75,5.75,0,0,0-4.33.92,4.67,4.67,0,0,1-.62-.24c-.25-.95-.52-1.84-.77-2.6C46.73,8.42,42.39-.56,37,0,35,.25,33.19,1.81,31.85,4,27.1,1.21,20.69,1,17.46,4,15,6.34,14.59,10.37,15.39,14,10.27,14.49,5.27,20,5.8,24.49c.4,3.34,3.85,5.81,7.3,6.42A5.2,5.2,0,0,0,13,32.59c.27,3.29,3.9,6.43,7.76,6.76,4.58.4,7.64-3.32,7.91-3.67a8,8,0,0,0,6.84-.76,7.87,7.87,0,0,0,3-5.21,10.23,10.23,0,0,0,4.78-.5A10.71,10.71,0,0,0,45.72,28a11.05,11.05,0,0,1,2.57-.33,10.65,10.65,0,0,1,3.42.55l.08.05c.38.26.76.52,1.13.8l.33.25a31.73,31.73,0,0,1,3.61,3.14,15.58,15.58,0,0,0,1.78-3.72C60,24.1,58.36,15.93,53.87,14.84Z"/><path class="cls-7" d="M39.66,80.34c.45-5.93-10.11-15.39-19.21-13-5.77,1.5-11.1,7.78-10.33,12.86a100.55,100.55,0,0,0,13.7,1.17A99.4,99.4,0,0,0,39.66,80.34Z"/><path class="cls-2" d="M23.82,81.35a100.55,100.55,0,0,1-13.7-1.17,5.36,5.36,0,0,0,.23,1c1.57,4.89,8.9,6.08,10.76,6.38,7.54,1.22,17.49-1.64,18.48-6.64a3.33,3.33,0,0,0,.07-.54A99.4,99.4,0,0,1,23.82,81.35Z"/></g></g></svg>